<?xml version="1.0" encoding="UTF-8" standalone="no"?>
<!-- Created with Inkscape (http://www.inkscape.org/) -->

<svg
   width="210mm"
   height="297mm"
   viewBox="0 0 210 297"
   version="1.1"
   id="svg1"
   inkscape:version="1.4 (86a8ad7, 2024-10-11)"
   sodipodi:docname="hisnapqr-single-logo.svg"
   xmlns:inkscape="http://www.inkscape.org/namespaces/inkscape"
   xmlns:sodipodi="http://sodipodi.sourceforge.net/DTD/sodipodi-0.dtd"
   xmlns="http://www.w3.org/2000/svg"
   xmlns:svg="http://www.w3.org/2000/svg">
  <sodipodi:namedview
     id="namedview1"
     pagecolor="#ffffff"
     bordercolor="#000000"
     borderopacity="0.25"
     inkscape:showpageshadow="2"
     inkscape:pageopacity="0.0"
     inkscape:pagecheckerboard="0"
     inkscape:deskcolor="#d1d1d1"
     inkscape:document-units="mm"
     inkscape:zoom="1.4378367"
     inkscape:cx="414.85935"
     inkscape:cy="540.04742"
     inkscape:window-width="1920"
     inkscape:window-height="1009"
     inkscape:window-x="-8"
     inkscape:window-y="-8"
     inkscape:window-maximized="1"
     inkscape:current-layer="layer1" />
  <defs
     id="defs1">
    <linearGradient
       id="swatch1">
      <stop
         style="stop-color:#800080;stop-opacity:1;"
         offset="0"
         id="stop1" />
    </linearGradient>
  </defs>
  <g
     inkscape:label="Layer 1"
     inkscape:groupmode="layer"
     id="layer1">
    <rect
       style="fill:#f9f9f9;stroke-width:2.53836;stroke-linecap:round;stroke-linejoin:round;paint-order:stroke fill markers"
       id="rect1"
       width="85"
       height="85"
       x="62.5"
       y="106"
       rx="10.939"
       inkscape:export-filename="hisnapqr-single-logo.svg"
       inkscape:export-xdpi="31.660273"
       inkscape:export-ydpi="31.660273" />
    <path
       id="rect15"
       style="fill:#6a0dad;stroke:none;stroke-width:0.13959;stroke-dasharray:none;fill-opacity:1;fill-rule:nonzero"
       d="M 74.500084,111 C 70.622085,111 67.5,114.12209 67.5,118.00009 v 60.99982 c 0,3.878 3.122085,7.00009 7.000084,7.00009 h 61.000356 c 3.878,0 6.99956,-3.12209 6.99956,-7.00009 V 118.00009 C 142.5,114.12209 139.37844,111 135.50044,111 Z m 0,5.00021 h 61.000356 c 1.10799,0 1.99988,0.89188 1.99988,1.99988 v 60.99982 c 0,1.108 -0.89189,2.0004 -1.99988,2.0004 H 74.500084 c -1.107996,0 -1.999878,-0.8924 -1.999878,-2.0004 v -60.99982 c 0,-1.108 0.891882,-1.99988 1.999878,-1.99988 z m 3.00033,5.0002 v 25 h 25.000006 v -25 z m 29.999696,0 v 25 h 25 v -25 z m -25.000007,4.9997 H 97.50022 v 15.0001 H 82.500103 Z m 30.000217,0 h 15.0001 v 15.0001 h -15.0001 z m -25.000007,5.00021 V 136 h 4.999697 v -4.99968 z m 29.999687,0 V 136 h 5.00021 v -4.99968 z m -39.999586,19.99977 v 25.00002 h 25.000006 v -25.00002 z m 29.999696,0 v 25.00002 h 5.00021 v -9.99991 h 6.16706 3.83283 V 151.00009 H 117.5 V 161 h -4.99968 v -9.99991 z m 20.00031,0 v 5.00022 h 4.99969 v -5.00022 z m -45.000317,5.00022 H 97.50022 v 15.00011 H 82.500103 Z M 87.500313,161 v 5.0002 H 92.50001 V 161 Z m 40.000107,0 v 15.00011 h 4.99969 V 161 Z M 117.5,171.00042 v 4.99969 h 5.00021 v -4.99969 z"
       inkscape:export-filename="hisnapqr-logo.png"
       inkscape:export-xdpi="96"
       inkscape:export-ydpi="96" />
  </g>
</svg>
