<?xml version="1.0" encoding="UTF-8" standalone="no"?>
<!-- Created with Inkscape (http://www.inkscape.org/) -->

<svg
   width="300.58881mm"
   height="60.288273mm"
   viewBox="0 0 300.5888 60.288272"
   version="1.1"
   id="svg1"
   sodipodi:docname="hisnapqr-logo.svg"
   inkscape:version="1.4 (86a8ad7, 2024-10-11)"
   xmlns:inkscape="http://www.inkscape.org/namespaces/inkscape"
   xmlns:sodipodi="http://sodipodi.sourceforge.net/DTD/sodipodi-0.dtd"
   xmlns="http://www.w3.org/2000/svg"
   xmlns:svg="http://www.w3.org/2000/svg">
  <sodipodi:namedview
     id="namedview1"
     pagecolor="#ffffff"
     bordercolor="#000000"
     borderopacity="0.25"
     inkscape:showpageshadow="2"
     inkscape:pageopacity="0.0"
     inkscape:pagecheckerboard="0"
     inkscape:deskcolor="#d1d1d1"
     inkscape:document-units="mm"
     showguides="true"
     inkscape:zoom="0.51399334"
     inkscape:cx="268.48597"
     inkscape:cy="135.21576"
     inkscape:window-width="1920"
     inkscape:window-height="1009"
     inkscape:window-x="-8"
     inkscape:window-y="-8"
     inkscape:window-maximized="1"
     inkscape:current-layer="svg1">
    <inkscape:page
       x="1.2103804e-23"
       y="0"
       width="300.58878"
       height="60.288273"
       id="page2"
       margin="0"
       bleed="0" />
  </sodipodi:namedview>
  <defs
     id="defs1" />
  <path
     id="rect15"
     style="fill:#f9f9f9;stroke:#f9f9f9;stroke-width:0.112;stroke-dasharray:none"
     d="M 5.67252,0.056 C 2.561008,0.056 0.056,2.561007 0.056,5.672519 v 48.943237 c 0,3.111512 2.505008,5.61652 5.61652,5.61652 h 48.943655 c 3.111512,0 5.616102,-2.505008 5.616102,-5.61652 V 5.672519 c 0,-3.111512 -2.50459,-5.616519 -5.616102,-5.616519 z m 0,4.011917 h 48.943655 c 0.889003,0 1.604603,0.715598 1.604603,1.604602 v 48.943237 c 0,0.889004 -0.7156,1.60502 -1.604603,1.60502 H 5.67252 c -0.889003,0 -1.604601,-0.716016 -1.604601,-1.60502 V 5.672519 c 0,-0.889004 0.715598,-1.604602 1.604601,-1.604602 z m 2.407316,4.011918 v 20.058761 h 20.05876 V 8.079835 Z m 24.070263,0 V 28.138596 H 52.208861 V 8.079835 Z m -20.05876,4.011504 H 24.126678 V 24.126677 H 12.091339 Z m 24.070677,0 H 48.197354 V 24.126677 H 36.162016 Z m -20.058759,4.011917 v 4.011503 h 4.011503 v -4.011503 z m 24.070264,0 v 4.011503 h 4.011917 V 16.103256 Z M 8.079836,32.150096 V 52.20886 h 20.05876 V 32.150096 Z m 24.070263,0 V 52.20886 h 4.011917 v -8.023424 h 4.948144 3.075278 v -12.03534 h -4.011917 v 8.023423 h -4.011505 v -8.023423 z m 16.047255,0 v 4.011916 h 4.011507 v -4.011916 z m -36.106015,4.011916 h 12.035339 v 12.03534 H 12.091339 Z m 4.011918,4.011507 v 4.011917 h 4.011503 v -4.011917 z m 32.094097,0 V 52.20886 h 4.011507 V 40.173519 Z m -8.023833,8.023833 v 4.011508 h 4.011917 v -4.011508 z" />
  <text
     xml:space="preserve"
     style="font-size:56.3021px;text-align:start;writing-mode:lr-tb;direction:ltr;text-anchor:start;fill:#ffffff;stroke:none;stroke-width:2.5387;stroke-linecap:round;stroke-linejoin:round;stroke-dasharray:none;paint-order:stroke fill markers"
     x="68.91993"
     y="53.389767"
     id="text29"><tspan
       id="tspan29"
       style="font-style:normal;font-variant:normal;font-weight:normal;font-stretch:normal;font-size:56.3021px;font-family:Impact;-inkscape-font-specification:Impact;fill:#ffffff;stroke:none;stroke-width:2.5387;stroke-linecap:round;stroke-linejoin:round;stroke-dasharray:none;paint-order:stroke fill markers"
       x="68.91993"
       y="53.389767">Hi SnapQR</tspan></text>
</svg>
